<?xml version="1.0" encoding="utf-8"?>
<!-- Generator: Adobe Illustrator 23.0.1, SVG Export Plug-In . SVG Version: 6.00 Build 0)  -->
<svg version="1.1" id="Layer_1" xmlns="http://www.w3.org/2000/svg" xmlns:xlink="http://www.w3.org/1999/xlink" x="0px" y="0px"
	 viewBox="0 0 50 50" style="enable-background:new 0 0 50 50;" xml:space="preserve">
<style type="text/css">
	.st0{fill:#FFFFFF;}
</style>
<title>Asset 9</title>
<g>
	<g id="Capa_1">
		<path class="st0" d="M25,0c13.8,0,25,11.2,25,25c0,13.8-11.2,25-25,25C11.2,50,0.1,38.9,0,25.1C-0.1,11.3,11.1,0.1,24.9,0
			C24.9,0,25,0,25,0z M27.8,22.2v-1.1c0-2.3,0-4.6,0-7c0-0.4-0.1-0.9-0.2-1.3c-0.6-1.4-2.2-2.1-3.6-1.5c-1,0.4-1.7,1.4-1.7,2.5
			c0,2.5,0,5,0,7.6v0.8h-0.8c-2.5,0-4.9,0-7.4,0c-0.5,0-0.9,0.1-1.3,0.2c-1.4,0.6-2,2.3-1.4,3.6c0.4,1,1.4,1.6,2.5,1.6
			c2.5,0,5,0,7.6,0h0.8v0.8c0,2.4,0,4.9,0,7.3c0,0.5,0.1,0.9,0.2,1.3c0.5,1.2,1.8,1.9,3.1,1.6c1.3-0.2,2.2-1.4,2.2-2.7
			c0-2.5,0-5.1,0-7.6v-0.8h0.7c2.5,0,4.9,0,7.4,0c0.5,0,0.9-0.1,1.3-0.2c1.2-0.5,1.9-1.8,1.6-3.1c-0.3-1.3-1.4-2.2-2.7-2.2
			c-2.5,0-5,0-7.5,0L27.8,22.2z"/>
	</g>
</g>
</svg>
