<?xml version="1.0" encoding="utf-8"?>
<!-- Generator: Adobe Illustrator 23.0.1, SVG Export Plug-In . SVG Version: 6.00 Build 0)  -->
<svg version="1.1" id="Layer_1" xmlns="http://www.w3.org/2000/svg" xmlns:xlink="http://www.w3.org/1999/xlink" x="0px" y="0px"
	 viewBox="0 0 512 512" style="enable-background:new 0 0 512 512;" xml:space="preserve">
<g>
	<g>
		<g>
			<ellipse cx="264.3" cy="55.5" rx="42.5" ry="42.5"/>
		</g>
	</g>
	<g>
		<g>
			<path d="M418.9,203.1c-9.3-5.3-21.3-2.1-26.6,7.3c-3.1,5.5-3.3,11.9-1,17.3l-3.1,5.4l-29.2-31L334.9,128c-2.4-7.4-9-12.3-16.3-13
				v-0.3h-94.2c-0.2-0.1-0.4-0.2-0.7-0.3l-56.9-22.3L162.1,37h10.4c3.5,4.7,9.1,7.8,15.5,7.8c10.8,0,19.5-8.6,19.6-19.4
				c0-10.8-8.6-19.5-19.4-19.6c-6.3,0-12,3-15.5,7.7l-12.9-0.1C157.3,5,149.1-0.8,140,0c-7.9,0.7-14.2,6.1-16.4,13.2h-5.1
				c-3.5-4.7-9.1-7.8-15.5-7.8c-10.8,0-19.5,8.6-19.6,19.4c0,10.8,8.6,19.5,19.4,19.6c6.3,0,12-3,15.5-7.7h5.9l6.2,70.3
				c0.6,7.2,5.3,13.3,11.9,16l67.8,26.6h0.1v132.6l-46.9,199.5c-3.1,13.2,5.1,26.5,18.3,29.6s26.5-5.1,29.6-18.3l47.6-202.3h11.5
				L317.7,493c3.1,13.2,16.4,21.4,29.6,18.3c13.2-3.1,21.4-16.4,18.3-29.6l-46.9-199.5v-82.1l5.7,17.6c0.9,2.7,2.3,5.1,4.2,7.1
				l40,42.4l-4.2,7.4c-5.8,0.8-11.3,4.1-14.4,9.6c-5.3,9.3-2.1,21.3,7.3,26.6c9.3,5.3,21.3,2.1,26.6-7.3c3.1-5.5,3.3-11.9,1-17.3
				l2.4-4.2c6.1,1.3,12.4-0.5,16.9-4.7c7.5-7.1,7.9-18.9,1-26.5l6.6-11.6c5.8-0.8,11.3-4.1,14.4-9.6
				C431.5,220.3,428.3,208.4,418.9,203.1z"/>
		</g>
	</g>
</g>
</svg>
