<?xml version="1.0" encoding="utf-8"?>
<!-- Generator: Adobe Illustrator 23.0.1, SVG Export Plug-In . SVG Version: 6.00 Build 0)  -->
<svg version="1.1" id="Capa_1" xmlns="http://www.w3.org/2000/svg" xmlns:xlink="http://www.w3.org/1999/xlink" x="0px" y="0px"
	 viewBox="0 0 296.2 296.2" style="enable-background:new 0 0 296.2 296.2;" xml:space="preserve">
<g>
	<path d="M158.2,49.6c-54.3,0-98.5,44.2-98.5,98.5s44.2,98.5,98.5,98.5c54.3,0,98.5-44.2,98.5-98.5S212.5,49.6,158.2,49.6z
		 M158.2,215.6c-37.2,0-67.5-30.3-67.5-67.5s30.3-67.5,67.5-67.5c37.2,0,67.5,30.3,67.5,67.5S195.5,215.6,158.2,215.6z"/>
	<path d="M293.9,96.9c-3.6-15.5-10.7-26.7-11-27.2c-1.9-3-5.7-4.3-9.1-3.3c-3.4,1-5.9,4.1-5.9,7.7v148c0,4.4,3.6,8,8,8s8-3.6,8-8
		v-70.5C296,136.3,298.8,117.5,293.9,96.9z"/>
	<path d="M62,84.2V74.1c0-4.4-3.6-8-8-8s-8,3.6-8,8v10.1c0,5.2-2,9.8-7,12.4V74.1c0-4.4-3.6-8-8-8s-8,3.6-8,8v22.6
		c-4-2.6-7-7.2-7-12.4V74.1c0-4.4-3.6-8-8-8s-8,3.6-8,8v10.1c0,14.2,10,26.2,23,29.7v109.2c0,4.4,3.6,8,8,8s8-3.6,8-8V113.9
		C53,110.4,62,98.4,62,84.2z"/>
	<path d="M186.3,117.6c-3.9-2.1-8.7-0.7-10.9,3.2l-23.7,43.4l-11.7-17.5c-2.4-3.7-7.4-4.7-11.1-2.2c-3.7,2.4-4.7,7.4-2.2,11.1
		l19,28.5c1.5,2.2,4,3.6,6.7,3.6c0.1,0,0.2,0,0.4,0c2.8-0.1,5.3-1.7,6.7-4.2l30-55C191.6,124.6,190.2,119.7,186.3,117.6z"/>
</g>
</svg>
