<?xml version="1.0" encoding="utf-8"?>
<!-- Generator: Adobe Illustrator 23.0.1, SVG Export Plug-In . SVG Version: 6.00 Build 0)  -->
<svg version="1.1" id="Capa_1" xmlns="http://www.w3.org/2000/svg" xmlns:xlink="http://www.w3.org/1999/xlink" x="0px" y="0px"
	 viewBox="0 0 325.5 325.5" style="enable-background:new 0 0 325.5 325.5;" xml:space="preserve">
<g>
	<g id="Layer_5_45_">
		<g>
			<g>
				<path d="M105,289c0,8.2-6.8,15-15,15H28c-8.2,0-15-6.8-15-15v-68c0-8.2,6.8-15,15-15h62c8.2,0,15,6.8,15,15V289z"/>
			</g>
			<g>
				<path d="M215.2,289c0,8.2-6.8,15-15,15h-62c-8.2,0-15-6.8-15-15V185c0-8.2,6.8-15,15-15h62c8.2,0,15,6.8,15,15V289z"/>
			</g>
			<g>
				<path d="M325.5,289c0,8.2-6.8,15-15,15h-62c-8.2,0-15-6.8-15-15V145c0-8.2,6.8-15,15-15h62c8.2,0,15,6.8,15,15V289z"/>
			</g>
			<path d="M312.5,21.7l-67.4,16.4c-5.3,1.3-6.5,5.5-2.6,9.4l14.4,14c1.2,1.4-0.2,3.2-1.4,4c-9.1,6.2-23.4,15.2-43.3,25.6
				C104.1,147.6,15,144.1,13.7,144.1c-7.2-0.4-13.3,5.1-13.6,12.3c-0.4,7.2,5.1,13.3,12.3,13.7c0.5,0,2.7,0.1,6.3,0.1
				c23.1,0,106.1-4,205.7-55.9c23.6-12.3,39.9-22.9,49.4-29.6c1.3-0.9,3.7-2.6,5.9-0.4l15.7,15.7c3.9,3.9,8.1,2.7,9.4-2.7l15.3-68.2
				C321.2,23.8,317.9,20.4,312.5,21.7z"/>
		</g>
	</g>
</g>
</svg>
