<?xml version="1.0" encoding="utf-8"?>
<!-- Generator: Adobe Illustrator 23.0.1, SVG Export Plug-In . SVG Version: 6.00 Build 0)  -->
<svg version="1.1" id="Layer_1" xmlns="http://www.w3.org/2000/svg" xmlns:xlink="http://www.w3.org/1999/xlink" x="0px" y="0px"
	 viewBox="0 0 50 50" style="enable-background:new 0 0 50 50;" xml:space="preserve">
<style type="text/css">
	.st0{fill:#FFFFFF;}
</style>
<title>Asset 6</title>
<g>
	<g id="Capa_1">
		<path class="st0" d="M25,0C11.2,0,0,11.2,0,25s11.2,25,25,25s25-11.2,25-25S38.8,0,25,0z M39.5,23c-0.1,0.2-0.3,0.5-1,0.5h-1.8
			v13.6c0,1-0.8,1.7-1.7,1.8h-5.5c-1,0-1.8-0.8-1.8-1.8v-5.6c0-0.5-0.4-0.9-0.8-0.9c0,0,0,0,0,0h-3.7c-0.5,0-0.9,0.4-0.9,0.9v5.6
			c0,1-0.7,1.7-1.7,1.8c0,0,0,0,0,0h-5.5c-1,0-1.8-0.8-1.8-1.8c0,0,0,0,0,0V23.5h-1.8c-0.7,0-1-0.3-1-0.5s-0.1-0.6,0.5-1.1
			l12.7-10.4c0.4-0.3,0.8-0.4,1.3-0.4c0.5,0,0.9,0.2,1.3,0.4l4.9,4v-1.3c0-0.6,0.4-1,1-1h2.3c0.6,0,1,0.4,1,1V19l3.6,3
			C39.6,22.4,39.6,22.8,39.5,23z"/>
	</g>
</g>
</svg>
