<?xml version="1.0" encoding="utf-8"?>
<!-- Generator: Adobe Illustrator 23.0.1, SVG Export Plug-In . SVG Version: 6.00 Build 0)  -->
<svg version="1.1" id="Layer_1" xmlns="http://www.w3.org/2000/svg" xmlns:xlink="http://www.w3.org/1999/xlink" x="0px" y="0px"
	 viewBox="0 0 50 50" style="enable-background:new 0 0 50 50;" xml:space="preserve">
<style type="text/css">
	.st0{fill:#FFFFFF;}
</style>
<title>Asset 1</title>
<g>
	<g id="Capa_1">
		<path class="st0" d="M25,0C11.2,0,0,11.2,0,25s11.2,25,25,25s25-11.2,25-25S38.8,0,25,0z M24.4,18.5c0,1.2-0.9,2.1-2.1,2.1
			c0,0,0,0,0,0h-0.4l0.6,19.2c0,1-0.7,1.8-1.7,1.8c0,0,0,0-0.1,0h-1.4c-1,0-1.8-0.8-1.8-1.7c0,0,0,0,0-0.1l0.6-19.2h-0.3
			c-1.2,0-2.1-0.9-2.1-2.1c0,0,0,0,0,0V9c0-0.4,0.3-0.6,0.6-0.6c0,0,0,0,0,0h0.1c0.4,0,0.7,0.3,0.7,0.6c0,0,0,0,0,0v6.3
			c0,0.6,0.4,1,1,1h0.1c0.6,0,1-0.4,1-1V9c0-0.3,0.2-0.6,0.6-0.7c0,0,0.1,0,0.1,0h0.1c0.3,0,0.6,0.3,0.6,0.6c0,0,0,0,0,0v6.3
			c0,0.6,0.4,1,1,1h0.2c0.6,0,1-0.4,1-1V9c0-0.3,0.3-0.6,0.6-0.6c0,0,0,0,0,0h0.1c0.3,0,0.6,0.3,0.6,0.6c0,0,0,0,0,0L24.4,18.5z
			 M34.4,39.9c0,1-0.8,1.8-1.8,1.8c0,0,0,0,0,0h-1.5c-0.5,0-0.9-0.2-1.3-0.5c-0.3-0.3-0.5-0.8-0.5-1.3l0.4-11.2h-0.1
			c-0.6,0-1.2-0.3-1.6-0.7c-0.4-0.5-0.6-1.1-0.6-1.7l1-14.3c0.1-2,1.8-3.6,3.8-3.6c1.2,0,2.1,0.9,2.1,2.1c0,0,0,0,0,0L34.4,39.9z"/>
	</g>
</g>
</svg>
