<?xml version="1.0" encoding="utf-8"?>
<!-- Generator: Adobe Illustrator 23.0.1, SVG Export Plug-In . SVG Version: 6.00 Build 0)  -->
<svg version="1.1" id="Layer_1" xmlns="http://www.w3.org/2000/svg" xmlns:xlink="http://www.w3.org/1999/xlink" x="0px" y="0px"
	 viewBox="0 0 50 50" style="enable-background:new 0 0 50 50;" xml:space="preserve">
<style type="text/css">
	.st0{fill:#FFFFFF;}
</style>
<title>Asset 5</title>
<g>
	<g id="Capa_1">
		<path class="st0" d="M25,0C11.2,0,0,11.2,0,25s11.2,25,25,25s25-11.2,25-25S38.8,0,25,0z M19.1,34.7c0,0.7-0.6,1.3-1.3,1.3h-5.3
			c-0.7,0-1.3-0.6-1.3-1.3V29c0-0.7,0.6-1.3,1.3-1.3h5.3c0.7,0,1.3,0.6,1.3,1.3V34.7z M28.5,34.7c0,0.7-0.6,1.3-1.3,1.3h-5.3
			c-0.7,0-1.3-0.6-1.3-1.3v-8.8c0-0.7,0.6-1.3,1.3-1.3h5.3c0.7,0,1.3,0.6,1.3,1.3L28.5,34.7z M11.8,24.6h-0.5
			c-0.6,0-1.1-0.6-1.1-1.2c0-0.6,0.6-1,1.2-1c0.1,0,7.7,0.3,16.9-4.5c1.3-0.7,2.5-1.4,3.7-2.2c0.1-0.1,0.2-0.2,0.1-0.3l-1.2-1.2
			c-0.3-0.3-0.2-0.7,0.2-0.8l5.7-1.4c0.3-0.1,0.5,0,0.6,0.3c0,0.1,0,0.2,0,0.3l-1.3,5.8c-0.1,0.5-0.5,0.6-0.8,0.2l-1.3-1.3
			c-0.2-0.2-0.4,0-0.5,0c-1.3,0.9-2.7,1.8-4.2,2.5C23.9,22.8,17.9,24.4,11.8,24.6z M37.8,34.7c0,0.7-0.6,1.3-1.3,1.3h-5.3
			c-0.7,0-1.3-0.6-1.3-1.3V22.5c0-0.7,0.6-1.3,1.3-1.3h5.3c0.7,0,1.3,0.6,1.3,1.3L37.8,34.7z"/>
	</g>
</g>
</svg>
