<?xml version="1.0" encoding="utf-8"?>
<!-- Generator: Adobe Illustrator 23.0.1, SVG Export Plug-In . SVG Version: 6.00 Build 0)  -->
<svg version="1.1" id="Layer_1" xmlns="http://www.w3.org/2000/svg" xmlns:xlink="http://www.w3.org/1999/xlink" x="0px" y="0px"
	 viewBox="0 0 50 50" style="enable-background:new 0 0 50 50;" xml:space="preserve">
<style type="text/css">
	.st0{fill:#FFFFFF;}
</style>
<title>Asset 7</title>
<g>
	<g id="Capa_1">
		<path class="st0" d="M25.2,0C11.8-0.2,0.1,11,0,24.3C-0.4,38.1,10.5,49.6,24.3,50S49.6,39.5,50,25.7S39.5,0.4,25.7,0
			C25.5,0,25.4,0,25.2,0z M11,30.8c-1.2-0.1-1.6-0.5-2-2.5c-1.2,0.1-1.7-0.3-1.7-1.5s0-2.4,0-3.6s0.4-1.6,1.7-1.5
			c0.1-1.2,0.5-2.3,2-2.6V30.8z M17,32.2c0.1,1.3-0.9,2.4-2.2,2.5s-2.4-0.9-2.5-2.2c0-0.1,0-0.2,0-0.3c0-4.8,0-9.5,0-14.3
			c-0.1-1.3,0.8-2.4,2-2.5c0.1,0,0.2,0,0.2,0c1.3-0.1,2.3,0.9,2.4,2.1c0,0.1,0,0.3,0,0.4c0,2.4,0,4.8,0,7.3S17,29.8,17,32.2z
			 M31.7,27.3H18.3v-4.5h13.4L31.7,27.3z M35.3,34.7c-1.3,0-2.3-1-2.3-2.2c0-0.1,0-0.2,0-0.3c0-2.4,0-4.8,0-7.3s0-4.7,0-7
			c-0.1-1.3,0.8-2.4,2-2.5c0.1,0,0.2,0,0.3,0c1.3,0,2.4,1,2.4,2.2c0,0.1,0,0.2,0,0.3c0,4.8,0,9.5,0,14.3c0.1,1.3-0.8,2.4-2.1,2.5
			C35.5,34.7,35.4,34.7,35.3,34.7L35.3,34.7z M41,28.3c0.1,1.2-0.8,2.4-2,2.6V19.2c1.3,0.1,1.7,0.5,2.1,2.5c1.2,0,1.7,0.3,1.7,1.5
			s0,2.4,0,3.6S42.3,28.4,41,28.3z"/>
	</g>
</g>
</svg>
