<?xml version="1.0" encoding="utf-8"?>
<!-- Generator: Adobe Illustrator 23.0.1, SVG Export Plug-In . SVG Version: 6.00 Build 0)  -->
<svg version="1.1" id="Layer_1" xmlns="http://www.w3.org/2000/svg" xmlns:xlink="http://www.w3.org/1999/xlink" x="0px" y="0px"
	 viewBox="0 0 512 319.3" style="enable-background:new 0 0 512 319.3;" xml:space="preserve">
<path d="M511.1,210.8c-3.4-22.1-12.8-41.1-29.2-56.5c-9-8.5-19.2-15.1-30.8-19.5c-2-0.8-3.6-1.5-3.6-4.5c0-7.1-0.2-14.2-1.2-21.1
	c-4.4-32-19.4-58.5-43.8-79.2C379.8,10.6,353.2,0.3,323.2,0C274-0.4,236.8,21.2,210.8,62.5c-1.3,2-2.5,2.7-4.9,2.4
	c-12.1-1.8-24.2-1.7-36.1,1.5c-32.1,8.4-54.2,28.2-66.8,58.9c-0.5,1.2-2.5,2.5-3.8,2.5c-32.1-0.4-58.6,11.5-78.3,36.7
	C0.1,191-5.2,221.1,5.1,253.4c12.6,39.2,49.5,66,91.2,65.9c106.4-0.2,212.8-0.1,319.2,0c13.4,0,26.4-2.1,38.5-7.7
	c28.4-13,47-34.5,54.9-65c1.1-4.4,2-9,3-13.4c0-6.3,0-12.5,0-18.8C511.7,213.2,511.3,212,511.1,210.8z M160.5,206.6c0,3.5-3.4,6-8,6
	c-4.4,0-7.9-2.6-7.9-6.1c-0.1-8.9-0.1-17.8,0-26.7c0-1.7,0.1-3.5,0.6-5.2c0.7-2.1,4.1-3.8,7.3-3.8c3.1,0,6.3,1.4,7.4,3.5
	c0.4,0.8,0.5,1.6,0.5,2.5c0,5,0,9.9,0,14.9C160.5,196.7,160.5,201.6,160.5,206.6z M184.2,237.3c-3.7,2.3-7.8,2.4-11.6,0.6
	c-4.1-1.9-5.8-5.4-5.8-9.9c0-12.1,0-24.2,0-36.3c0-12,0-24,0-36c0-4.5,1.6-8.2,5.7-10.2c6.6-3.1,15.8-0.5,16.5,8.9
	c0,0.6,0,1.2,0,1.7c0,23.6,0,47.3,0,70.9C189,231.4,187.9,235,184.2,237.3z M346.6,256.4c-5.4,5.4-14.9,4.5-19.3-1.7
	c-2.5-3.5-3.4-7.3-3.4-11.4c0-12.1,0-24.1,0-36.2c0-0.8,0-1.5,0-2.5c-33.7,0-67.3,0-101.2,0c0,0.7,0,1.5,0,2.2c0,12.2,0,24.4,0,36.5
	c0,4.9-1.2,9.2-4.8,12.8c-6.3,6.3-16.4,4.5-20.7-3.4c-1.7-3-2.2-6.3-2.2-9.7c0-34.4,0-68.7,0-103.1c0-4.9,1.3-9.4,4.9-13
	c5.5-5.5,14.9-4.6,19.5,1.7c2.4,3.4,3.3,7.2,3.3,11.3c0,12.1,0,24.2,0,36.4c0,0.8,0,1.5,0,2.4c33.8,0,67.4,0,101.2,0
	c0-0.8,0-1.6,0-2.3c0-12.2,0-24.4,0-36.5c0-4.9,1.3-9.4,5-12.9c5.7-5.5,15-4.5,19.5,2c2.3,3.3,3.2,6.9,3.2,10.7
	c0,34.6,0,69.2,0,103.8C351.6,248.5,350.2,252.8,346.6,256.4z M374.6,237.9c-7.6,3.4-16.3-0.7-16.3-9.4c-0.1-24.5-0.1-49.1,0-73.6
	c0-5.5,3.7-9.7,8.8-10.3c6.5-0.9,11.4,2,13,7.6c0.4,1.5,0.4,3.1,0.4,4.6c0,11.7,0,23.3,0,35c0,11.9,0,23.8,0,35.8
	C380.5,232.1,378.9,236,374.6,237.9z M401.9,206.6c0,3.5-3.4,6-8,6c-4.4,0-7.9-2.6-7.9-6.1c-0.1-8.9-0.1-17.8,0-26.7
	c0-1.7,0.1-3.5,0.6-5.2c0.7-2.1,4.1-3.8,7.3-3.8c3.1,0,6.3,1.4,7.4,3.5c0.4,0.8,0.5,1.6,0.5,2.5c0,5,0,9.9,0,14.9
	C401.9,196.7,401.9,201.6,401.9,206.6z"/>
</svg>
