<?xml version="1.0" encoding="utf-8"?>
<!-- Generator: Adobe Illustrator 23.0.1, SVG Export Plug-In . SVG Version: 6.00 Build 0)  -->
<svg version="1.1" id="Layer_1" xmlns="http://www.w3.org/2000/svg" xmlns:xlink="http://www.w3.org/1999/xlink" x="0px" y="0px"
	 viewBox="0 0 50 50" style="enable-background:new 0 0 50 50;" xml:space="preserve">
<style type="text/css">
	.st0{fill:#FFFFFF;}
</style>
<title>Asset 8</title>
<g>
	<g id="Capa_1">
		<path class="st0" d="M25,0C11.2,0,0,11.2,0,25s11.2,25,25,25s25-11.2,25-25S38.8,0,25,0z M38.2,36.4c-0.1,0.9-0.6,1.7-1.4,2.2
			c-1.3,0.8-2.7,1.3-4.2,1.4c-2.5,0.3-7.5,0.6-7.5,0.6c-3.1,0.1-6.2-0.2-9.2-0.9c-0.8-0.2-1.5-0.5-2.2-0.9c-1.7-0.9-2.4-3-1.5-4.7
			c0.1-0.2,0.2-0.4,0.3-0.5c0.6-0.8,1.3-1.4,2.1-2c1.7-1.2,3.6-2.2,5.6-2.9c1.6-0.6,2-2.1,0.9-3.5c-2.5-2.8-3.5-6.6-2.8-10.3
			c0.6-3.3,3.6-5.6,6.9-5.4c3.3-0.1,6.2,2.2,6.8,5.4c0.7,3.6-0.4,7.4-2.8,10.2c-0.4,0.5-0.7,1.1-0.7,1.7c-0.1,0.8,0.4,1.7,1.3,1.8
			c2.3,0.8,4.5,1.9,6.5,3.4C37.5,33,38.3,34.7,38.2,36.4z"/>
	</g>
</g>
</svg>
